<svg width="42" height="32" viewBox="0 0 42 32" fill="none" xmlns="http://www.w3.org/2000/svg">
<path d="M9.21462 1.28744C9.40832 1.48092 9.56198 1.71069 9.66682 1.9636C9.77167 2.21651 9.82563 2.48761 9.82563 2.76139C9.82563 3.03518 9.77167 3.30627 9.66682 3.55919C9.56198 3.8121 9.40832 4.04187 9.21462 4.23535C6.08844 7.36205 4.33222 11.6024 4.33222 16.0239C4.33222 20.4453 6.08844 24.6857 9.21462 27.8124C9.40804 28.006 9.56145 28.2358 9.66608 28.4886C9.77071 28.7415 9.82451 29.0124 9.82441 29.2861C9.82432 29.5597 9.77032 29.8307 9.66551 30.0835C9.56071 30.3362 9.40714 30.5659 9.21357 30.7593C9.02001 30.9527 8.79025 31.1061 8.5374 31.2108C8.28455 31.3154 8.01356 31.3692 7.73992 31.3691C7.46628 31.369 7.19533 31.315 6.94256 31.2102C6.68978 31.1054 6.46012 30.9518 6.2667 30.7583C-1.8708 22.6208 -1.8708 9.42494 6.2667 1.28744C6.46018 1.09374 6.68995 0.94007 6.94286 0.835228C7.19578 0.730385 7.46687 0.676422 7.74066 0.676422C8.01444 0.676422 8.28554 0.730385 8.53845 0.835228C8.79136 0.94007 9.02113 1.09374 9.21462 1.28744ZM35.7375 1.28744C43.875 9.42702 43.875 22.6208 35.7375 30.7583C35.3446 31.1378 34.8184 31.3478 34.2721 31.343C33.7259 31.3383 33.2033 31.1192 32.8171 30.7329C32.4308 30.3466 32.2117 29.8241 32.207 29.2779C32.2022 28.7316 32.4122 28.2054 32.7917 27.8124C35.9179 24.6857 37.6741 20.4453 37.6741 16.0239C37.6741 11.6024 35.9179 7.36205 32.7917 4.23535C32.4008 3.84471 32.1811 3.31478 32.1809 2.76213C32.1807 2.20948 32.4 1.6794 32.7907 1.28848C33.1813 0.897559 33.7112 0.677834 34.2639 0.677639C34.8165 0.677444 35.3466 0.896795 35.7375 1.28744ZM15.3959 7.27494C15.7864 7.66562 16.0058 8.19543 16.0058 8.74785C16.0058 9.30028 15.7864 9.83009 15.3959 10.2208C14.6374 10.9791 14.0358 11.8794 13.6253 12.8703C13.2149 13.8612 13.0036 14.9232 13.0036 15.9958C13.0036 17.0683 13.2149 18.1303 13.6253 19.1212C14.0358 20.1121 14.6374 21.0124 15.3959 21.7708C15.5948 21.963 15.7536 22.1928 15.8627 22.447C15.9719 22.7012 16.0294 22.9746 16.0318 23.2512C16.0342 23.5278 15.9815 23.8021 15.8767 24.0582C15.772 24.3142 15.6173 24.5468 15.4217 24.7424C15.2261 24.938 14.9935 25.0927 14.7374 25.1975C14.4814 25.3022 14.2071 25.3549 13.9304 25.3525C13.6538 25.3501 13.3804 25.2927 13.1263 25.1835C12.8721 25.0743 12.6422 24.9156 12.45 24.7166C10.1372 22.4037 8.83783 19.2667 8.83783 15.9958C8.83783 12.7248 10.1372 9.58787 12.45 7.27494C12.8407 6.88437 13.3705 6.66496 13.9229 6.66496C14.4754 6.66496 15.0052 6.88437 15.3959 7.27494ZM29.8938 7.27494C32.2066 9.58787 33.506 12.7248 33.506 15.9958C33.506 19.2667 32.2066 22.4037 29.8938 24.7166C29.7004 24.9102 29.4707 25.0637 29.2179 25.1685C28.9651 25.2733 28.6942 25.3273 28.4206 25.3274C28.1469 25.3275 27.8759 25.2737 27.6231 25.1691C27.3702 25.0645 27.1405 24.9111 26.9469 24.7176C26.7533 24.5242 26.5998 24.2946 26.495 24.0418C26.3902 23.789 26.3362 23.5181 26.3361 23.2444C26.336 22.9708 26.3898 22.6998 26.4944 22.4469C26.599 22.1941 26.7524 21.9643 26.9459 21.7708C27.7043 21.0124 28.3059 20.1121 28.7164 19.1212C29.1269 18.1303 29.3381 17.0683 29.3381 15.9958C29.3381 14.9232 29.1269 13.8612 28.7164 12.8703C28.3059 11.8794 27.7043 10.9791 26.9459 10.2208C26.5552 9.82985 26.3359 9.29976 26.3361 8.74712C26.3363 8.19447 26.556 7.66454 26.9469 7.27389C27.3378 6.88325 27.8679 6.6639 28.4206 6.6641C28.9732 6.66429 29.5031 6.88402 29.8938 7.27494ZM21.1709 13.0458C21.5812 13.0458 21.9876 13.1266 22.3668 13.2836C22.7459 13.4407 23.0904 13.6709 23.3806 13.9611C23.6708 14.2512 23.9009 14.5957 24.058 14.9749C24.215 15.354 24.2959 15.7604 24.2959 16.1708C24.2959 16.5812 24.215 16.9875 24.058 17.3667C23.9009 17.7458 23.6708 18.0903 23.3806 18.3805C23.0904 18.6707 22.7459 18.9008 22.3668 19.0579C21.9876 19.2149 21.5812 19.2958 21.1709 19.2958C20.3421 19.2958 19.5472 18.9665 18.9612 18.3805C18.3751 17.7944 18.0459 16.9996 18.0459 16.1708C18.0459 15.342 18.3751 14.5471 18.9612 13.9611C19.5472 13.375 20.3421 13.0458 21.1709 13.0458Z" fill="#E52121"/>
</svg>
